inDegrees=no
num_controls=7
num_derivatives=13
num_iterations=106
num_multipliers=7
num_parameters=0
num_slacks=7
num_states=26
objective=0.341799
objective_accelerations=0.024281
objective_balance=0.000914
objective_effort=0.018604
objective_height=0.296526
objective_ligament=0.001474
solver_duration=1130.908066
status=Solve_Succeeded
success=true
DataType=double
version=3
OpenSimVersion=4.5
endheader
time	/jointset/ground_pelvis/pelvis_tilt/value	/jointset/ground_pelvis/pelvis_tx/value	/jointset/ground_pelvis/pelvis_ty/value	/jointset/hip_r/hip_flexion_r/value	/jointset/hip_r/hip_adduction_r/value	/jointset/hip_r/hip_rotation_r/value	/jointset/back/lumbar_extension/value	/jointset/patellofemoral_r/patellar_flexion_r/value	/jointset/knee_r/knee_flexion_r/value	/jointset/knee_r/knee_adduction_r/value	/jointset/knee_r/knee_rotation_r/value	/jointset/ankle_r/ankle_angle_r/value	/jointset/subtalar_r/subtalar_angle_r/value	/jointset/ground_pelvis/pelvis_tilt/speed	/jointset/ground_pelvis/pelvis_tx/speed	/jointset/ground_pelvis/pelvis_ty/speed	/jointset/hip_r/hip_flexion_r/speed	/jointset/hip_r/hip_adduction_r/speed	/jointset/hip_r/hip_rotation_r/speed	/jointset/back/lumbar_extension/speed	/jointset/patellofemoral_r/patellar_flexion_r/speed	/jointset/knee_r/knee_flexion_r/speed	/jointset/knee_r/knee_adduction_r/speed	/jointset/knee_r/knee_rotation_r/speed	/jointset/ankle_r/ankle_angle_r/speed	/jointset/subtalar_r/subtalar_angle_r/speed	/forceset/tau_hip_flexion_r	/forceset/tau_hip_adduction_r	/forceset/tau_hip_rotation_r	/forceset/tau_knee_flexion_r	/forceset/tau_ankle_angle_r	/forceset/tau_subtalar_angle_r	/forceset/tau_lumbar_extension	lambda_cid13_p0	lambda_cid14_p0	lambda_cid14_p1	lambda_cid14_p2	lambda_cid14_p3	lambda_cid14_p4	lambda_cid14_p5	/jointset/ground_pelvis/pelvis_tilt/accel	/jointset/ground_pelvis/pelvis_tx/accel	/jointset/ground_pelvis/pelvis_ty/accel	/jointset/hip_r/hip_flexion_r/accel	/jointset/hip_r/hip_adduction_r/accel	/jointset/hip_r/hip_rotation_r/accel	/jointset/back/lumbar_extension/accel	/jointset/patellofemoral_r/patellar_flexion_r/accel	/jointset/knee_r/knee_flexion_r/accel	/jointset/knee_r/knee_adduction_r/accel	/jointset/knee_r/knee_rotation_r/accel	/jointset/ankle_r/ankle_angle_r/accel	/jointset/subtalar_r/subtalar_angle_r/accel	gamma_cid13_p0	gamma_cid14_p0	gamma_cid14_p1	gamma_cid14_p2	gamma_cid14_p3	gamma_cid14_p4	gamma_cid14_p5
1.5	0.01001121006899047	0.08360910353851626	0.8698336225190854	0.5235004827126589	-0.2273950770776865	-0.1497338936873513	-0.5871979500208842	0.7460749015881997	0.7460749015882415	0.005839317210255227	0.1745305163211092	0.2931419833475422	0.1316394006110151	0.1965640744874195	0.1475141535705708	0.2878348618836702	-1.256860660364813	-0.01412265595351004	-0.1407286280835381	0.8107927368069247	-1.471066002534729	-1.471066002535217	0.4140286803336677	-8.82876627201458e-05	-0.5153020078713071	-0.2215442369024132	-0.09492211382108572	0.007646475302212523	0.01863171002034784	-0.2679954548076918	-0.0306289741080105	-0.01080687232960847	0.1689369922962623	-18.9655863731105	-52.95546266919239	-11.37830970088559	-0.7192948461559204	3.498621233940979	-638.89318555682	58.22563934267941	-0.111948528023802	0.2158210872006132	-0.3434543320921266	-0.4266562331223918	-0.1972692352727996	-0.5133594838812706	1.075327753738846	-0.8437598422135674	-0.843759842213494	0.3506791422997224	-0.04007174945588331	-0.4273230380043335	-0.233478215120425	8.675615309601497e-08	-4.070992131424745e-09	-1.274786183986881e-06	-4.689345932028397e-07	1.526536737061756e-07	-6.735823922437255e-08	-5.565863245893733e-07
1.51	0.0119710190795925	0.08509480811553859	0.8726942141800781	0.5109123222362295	-0.2275457411642514	-0.1511710299683436	-0.5790375204531675	0.7313239378652013	0.7313239378652331	0.009993373603646502	0.1745303120854739	0.2879684853977861	0.1294134559080843	0.195376692289251	0.1496026817652883	0.2842260575160589	-1.260597371918679	-0.01601630689159525	-0.1466585329125407	0.8211638538147062	-1.47890021848548	-1.478900218485756	0.4167830891402318	3.252220441269009e-05	-0.519320825747882	-0.2236178989910743	-0.08977697424937235	0.005759565216926725	0.0185304713266728	-0.2656820449725457	-0.02792582360639247	-0.01149320995198957	0.1639496548695951	-19.65373040608872	-51.94851826182877	-11.40326216698791	-0.8259035002700639	3.270960871154305	-636.1983756423219	58.36759170508286	-0.1252819463426187	0.2018074457169401	-0.3782569447592457	-0.3210709046155968	-0.1867560690415789	-0.6268763311230344	0.9986052360345986	-0.7192934059787489	-0.7192934059471113	0.2375709305310618	0.035589499503739	-0.3775611230873013	-0.190768226823314	9.375266944775567e-08	-2.97644890086839e-08	-1.657634313682196e-06	-1.183921636378976e-06	2.194445259122175e-07	-1.929700800310505e-07	-4.306948540060969e-07
1.52	0.01391832449208702	0.08660068572652999	0.875516985106262	0.4982920161866422	-0.2277156103693894	-0.1526662793673693	-0.5707772594030256	0.7165014237958005	0.7165014237958253	0.01417492392124137	0.1745308023774514	0.2827571192771438	0.1271674829800502	0.1940633548659136	0.1515487603643847	0.2802707149219007	-1.263289774996421	-0.01796367966828673	-0.1523512516900747	0.8307590332919607	-1.485376071815146	-1.485376071815211	0.4195274651746487	5.061785978058543e-05	-0.5228756420485864	-0.2255498819231099	-0.08463183467765947	0.003872655131635808	0.01842923263300329	-0.2633686351373984	-0.02522267310477563	-0.01217954757437877	0.1589623174429282	-20.33760645733841	-50.94536301650838	-11.43192481355136	-0.9284397384322016	3.05765952432799	-633.551199341517	58.46287273096185	-0.137139573057589	0.1873311680763887	-0.4127619774015198	-0.217794537897512	-0.208013602994055	-0.46592227358755	0.9201402476334453	-0.5720873179965463	-0.5720873179963732	0.3486725878702795	-0.0606145918088723	-0.3345227228302336	-0.2051423837953026	9.517092999142069e-08	-4.250277075512125e-08	-1.821445414395882e-06	-1.572422871972404e-06	2.504077431384147e-07	-2.635505481243769e-07	-3.170942506143164e-07
1.53	0.01585180993715702	0.08812522746741169	0.8782985284251442	0.4856501556305968	-0.227904975823196	-0.1542176335530802	-0.5624250123600708	0.7016208845921703	0.7016208845921212	0.0183832669203478	0.1745310331033707	0.2775124787196134	0.1249032242410973	0.1926093044578042	0.1533271081821547	0.2759865375036515	-1.264897421758172	-0.01990151604157559	-0.1579203433052636	0.8395495100017299	-1.490512877488984	-1.490512877489091	0.4220917826225739	-2.03594793873552e-07	-0.5259829280342661	-0.227258714352614	-0.07953165998213077	0.002308982584759536	0.01815579205454451	-0.2609241264815313	-0.02287283874041733	-0.01286037619851725	0.1540050173223942	-21.01714306298433	-50.07166469005777	-11.4792074863108	-1.029898082376906	2.984564049861373	-631.1077042339741	58.49876782607041	-0.1531946962201114	0.1682625443964089	-0.4440137552950325	-0.1045133412186802	-0.1859165261287965	-0.6026233611989519	0.8373715880474558	-0.4516611284896438	-0.4516611284959779	0.2025903406007881	0.02298796563502171	-0.2883163787391097	-0.1477479687282696	9.066229373900538e-08	-4.147613642506061e-08	-1.752529671816591e-06	-1.614032937009207e-06	2.43304098198527e-07	-2.75660182709768e-07	-2.165526936135002e-07
1.54	0.01777002349383938	0.08966658787762488	0.8810356763435924	0.4729977658877527	-0.2281135692150613	-0.1558247228060871	-0.5539890865089384	0.6866955405445175	0.6866955405443971	0.02261570889739884	0.174530816392329	0.2722388683337663	0.1226230783186093	0.1910089771883963	0.1549124942306842	0.2713916348350609	-1.265395612356113	-0.02180926728016003	-0.163498265149029	0.8474947949274515	-1.494337040619311	-1.494337040619459	0.4243472607643868	-3.886953269815942e-05	-0.5286696077120371	-0.228727318630131	-0.07443148528660568	0.0007453100378710487	0.01788235147611618	-0.2584796178256628	-0.02052300437606263	-0.01354120482267589	0.1490477172018593	-21.69014668941367	-49.20172172526826	-11.53079228222758	-1.126506489358653	2.927120852852258	-628.7113123613458	58.48173367817452	-0.1663949453173159	0.1487388142283044	-0.4749070274698313	0.004096694864527616	-0.2019965760531708	-0.4676883193028574	0.7511018908238942	-0.3095588092942191	-0.309558809294088	0.2869047266478181	-0.05818348847483863	-0.2504014612485045	-0.1570967533978873	8.9805687036018e-08	-4.09700332316878e-08	-1.722406489363683e-06	-1.667097823726868e-06	2.415203331125364e-07	-2.98262024175119e-07	-1.297134504056782e-07
